<mxfile host="app.diagrams.net" agent="Mozilla/5.0 (Windows NT 10.0; Win64; x64) AppleWebKit/537.36 (KHTML, like Gecko) Chrome/133.0.0.0 Safari/537.36" version="26.0.16">
  <diagram name="권한부여 다이어그램 수정" id="kt5N1nOAYXTMuBuhAOAW">
    <mxGraphModel dx="880" dy="428" grid="1" gridSize="10" guides="1" tooltips="1" connect="1" arrows="1" fold="1" page="1" pageScale="1" pageWidth="827" pageHeight="1169" math="0" shadow="0">
      <root>
        <mxCell id="0" />
        <mxCell id="1" parent="0" />
        <mxCell id="_zgztB828BG1MX7Zuyi1-1" value="마스터" style="shape=umlActor;verticalLabelPosition=bottom;verticalAlign=top;html=1;outlineConnect=0;fillColor=#dae8fc;strokeColor=#6c8ebf;" parent="1" vertex="1">
          <mxGeometry x="550" y="510" width="50" height="100" as="geometry" />
        </mxCell>
        <mxCell id="_zgztB828BG1MX7Zuyi1-2" value="인사관리자" style="shape=umlActor;verticalLabelPosition=bottom;verticalAlign=top;html=1;outlineConnect=0;" parent="1" vertex="1">
          <mxGeometry x="374" y="925" width="40" height="85" as="geometry" />
        </mxCell>
        <mxCell id="_zgztB828BG1MX7Zuyi1-3" value="결재자" style="shape=umlActor;verticalLabelPosition=bottom;verticalAlign=top;html=1;outlineConnect=0;" parent="1" vertex="1">
          <mxGeometry x="550" y="925" width="40" height="90" as="geometry" />
        </mxCell>
        <mxCell id="_zgztB828BG1MX7Zuyi1-4" value="기안자" style="shape=umlActor;verticalLabelPosition=bottom;verticalAlign=top;html=1;outlineConnect=0;" parent="1" vertex="1">
          <mxGeometry x="710" y="920" width="40" height="90" as="geometry" />
        </mxCell>
        <mxCell id="_S4eydJjEhaC2JPIOoyc-6" value="직급" style="ellipse;whiteSpace=wrap;html=1;" vertex="1" parent="1">
          <mxGeometry x="70" y="750" width="120" height="80" as="geometry" />
        </mxCell>
        <mxCell id="_S4eydJjEhaC2JPIOoyc-10" value="" style="endArrow=none;html=1;rounded=0;exitX=1;exitY=0.5;exitDx=0;exitDy=0;" edge="1" parent="1" source="_S4eydJjEhaC2JPIOoyc-6">
          <mxGeometry width="50" height="50" relative="1" as="geometry">
            <mxPoint x="180" y="820" as="sourcePoint" />
            <mxPoint x="310" y="790" as="targetPoint" />
          </mxGeometry>
        </mxCell>
        <mxCell id="_S4eydJjEhaC2JPIOoyc-23" value="역할" style="ellipse;whiteSpace=wrap;html=1;" vertex="1" parent="1">
          <mxGeometry x="510" y="750" width="120" height="80" as="geometry" />
        </mxCell>
        <mxCell id="_S4eydJjEhaC2JPIOoyc-25" value="" style="endArrow=none;html=1;rounded=0;entryX=0;entryY=0.5;entryDx=0;entryDy=0;" edge="1" parent="1" target="_S4eydJjEhaC2JPIOoyc-23">
          <mxGeometry width="50" height="50" relative="1" as="geometry">
            <mxPoint x="430" y="790" as="sourcePoint" />
            <mxPoint x="320" y="800" as="targetPoint" />
          </mxGeometry>
        </mxCell>
        <mxCell id="_S4eydJjEhaC2JPIOoyc-28" value="" style="endArrow=classic;html=1;rounded=0;entryX=0.5;entryY=0;entryDx=0;entryDy=0;" edge="1" parent="1" source="_zgztB828BG1MX7Zuyi1-1" target="_S4eydJjEhaC2JPIOoyc-23">
          <mxGeometry width="50" height="50" relative="1" as="geometry">
            <mxPoint x="581.69" y="620" as="sourcePoint" />
            <mxPoint x="558.3158915644908" y="760.2446506130545" as="targetPoint" />
          </mxGeometry>
        </mxCell>
        <mxCell id="_S4eydJjEhaC2JPIOoyc-36" value="추가" style="edgeLabel;html=1;align=center;verticalAlign=middle;resizable=0;points=[];" vertex="1" connectable="0" parent="_S4eydJjEhaC2JPIOoyc-28">
          <mxGeometry x="-0.0367" relative="1" as="geometry">
            <mxPoint as="offset" />
          </mxGeometry>
        </mxCell>
        <mxCell id="_S4eydJjEhaC2JPIOoyc-29" value="" style="endArrow=classic;html=1;rounded=0;exitX=0;exitY=1;exitDx=0;exitDy=0;exitPerimeter=0;entryX=0.566;entryY=0.023;entryDx=0;entryDy=0;entryPerimeter=0;" edge="1" parent="1" source="_zgztB828BG1MX7Zuyi1-1" target="_S4eydJjEhaC2JPIOoyc-6">
          <mxGeometry width="50" height="50" relative="1" as="geometry">
            <mxPoint x="270" y="760" as="sourcePoint" />
            <mxPoint x="320" y="710" as="targetPoint" />
          </mxGeometry>
        </mxCell>
        <mxCell id="_S4eydJjEhaC2JPIOoyc-34" value="추가" style="edgeLabel;html=1;align=center;verticalAlign=middle;resizable=0;points=[];" vertex="1" connectable="0" parent="_S4eydJjEhaC2JPIOoyc-29">
          <mxGeometry x="-0.017" y="-2" relative="1" as="geometry">
            <mxPoint x="-1" as="offset" />
          </mxGeometry>
        </mxCell>
        <mxCell id="_S4eydJjEhaC2JPIOoyc-32" value="&lt;div&gt;&lt;br&gt;&lt;/div&gt;&lt;div&gt;&lt;br&gt;&lt;/div&gt;&lt;div&gt;직책&lt;/div&gt;" style="ellipse;whiteSpace=wrap;html=1;verticalAlign=top;" vertex="1" parent="1">
          <mxGeometry x="315" y="750" width="115" height="80" as="geometry" />
        </mxCell>
        <mxCell id="_S4eydJjEhaC2JPIOoyc-37" value="부서" style="ellipse;whiteSpace=wrap;html=1;" vertex="1" parent="1">
          <mxGeometry x="680" y="750" width="120" height="80" as="geometry" />
        </mxCell>
        <mxCell id="_S4eydJjEhaC2JPIOoyc-38" value="게시판" style="ellipse;whiteSpace=wrap;html=1;" vertex="1" parent="1">
          <mxGeometry x="850" y="750" width="120" height="80" as="geometry" />
        </mxCell>
        <mxCell id="_S4eydJjEhaC2JPIOoyc-39" value="" style="endArrow=classic;html=1;rounded=0;entryX=0.812;entryY=0.058;entryDx=0;entryDy=0;exitX=0;exitY=1;exitDx=0;exitDy=0;exitPerimeter=0;entryPerimeter=0;" edge="1" parent="1" source="_zgztB828BG1MX7Zuyi1-1" target="_S4eydJjEhaC2JPIOoyc-32">
          <mxGeometry width="50" height="50" relative="1" as="geometry">
            <mxPoint x="570" y="610" as="sourcePoint" />
            <mxPoint x="580" y="760" as="targetPoint" />
          </mxGeometry>
        </mxCell>
        <mxCell id="_S4eydJjEhaC2JPIOoyc-40" value="추가" style="edgeLabel;html=1;align=center;verticalAlign=middle;resizable=0;points=[];" vertex="1" connectable="0" parent="_S4eydJjEhaC2JPIOoyc-39">
          <mxGeometry x="-0.0367" relative="1" as="geometry">
            <mxPoint as="offset" />
          </mxGeometry>
        </mxCell>
        <mxCell id="_S4eydJjEhaC2JPIOoyc-41" value="" style="endArrow=classic;html=1;rounded=0;exitX=1;exitY=1;exitDx=0;exitDy=0;exitPerimeter=0;" edge="1" parent="1" source="_zgztB828BG1MX7Zuyi1-1" target="_S4eydJjEhaC2JPIOoyc-37">
          <mxGeometry width="50" height="50" relative="1" as="geometry">
            <mxPoint x="584" y="620" as="sourcePoint" />
            <mxPoint x="580" y="760" as="targetPoint" />
          </mxGeometry>
        </mxCell>
        <mxCell id="_S4eydJjEhaC2JPIOoyc-42" value="추가" style="edgeLabel;html=1;align=center;verticalAlign=middle;resizable=0;points=[];" vertex="1" connectable="0" parent="_S4eydJjEhaC2JPIOoyc-41">
          <mxGeometry x="-0.0367" relative="1" as="geometry">
            <mxPoint as="offset" />
          </mxGeometry>
        </mxCell>
        <mxCell id="_S4eydJjEhaC2JPIOoyc-44" value="" style="endArrow=none;html=1;rounded=0;" edge="1" parent="1">
          <mxGeometry width="50" height="50" relative="1" as="geometry">
            <mxPoint x="630" y="789.5" as="sourcePoint" />
            <mxPoint x="680" y="790" as="targetPoint" />
          </mxGeometry>
        </mxCell>
        <mxCell id="_S4eydJjEhaC2JPIOoyc-45" value="" style="endArrow=none;html=1;rounded=0;entryX=0;entryY=0.5;entryDx=0;entryDy=0;" edge="1" parent="1" target="_S4eydJjEhaC2JPIOoyc-38">
          <mxGeometry width="50" height="50" relative="1" as="geometry">
            <mxPoint x="800" y="790" as="sourcePoint" />
            <mxPoint x="840" y="790" as="targetPoint" />
          </mxGeometry>
        </mxCell>
        <mxCell id="_S4eydJjEhaC2JPIOoyc-46" value="" style="endArrow=classic;html=1;rounded=0;exitX=1;exitY=1;exitDx=0;exitDy=0;exitPerimeter=0;entryX=0;entryY=0;entryDx=0;entryDy=0;" edge="1" parent="1" source="_zgztB828BG1MX7Zuyi1-1" target="_S4eydJjEhaC2JPIOoyc-38">
          <mxGeometry width="50" height="50" relative="1" as="geometry">
            <mxPoint x="610" y="605" as="sourcePoint" />
            <mxPoint x="724" y="764" as="targetPoint" />
          </mxGeometry>
        </mxCell>
        <mxCell id="_S4eydJjEhaC2JPIOoyc-47" value="추가" style="edgeLabel;html=1;align=center;verticalAlign=middle;resizable=0;points=[];" vertex="1" connectable="0" parent="_S4eydJjEhaC2JPIOoyc-46">
          <mxGeometry x="-0.0367" relative="1" as="geometry">
            <mxPoint as="offset" />
          </mxGeometry>
        </mxCell>
        <mxCell id="_S4eydJjEhaC2JPIOoyc-48" value="" style="endArrow=none;html=1;rounded=0;entryX=0.5;entryY=1;entryDx=0;entryDy=0;exitX=0.5;exitY=0;exitDx=0;exitDy=0;exitPerimeter=0;" edge="1" parent="1" source="_zgztB828BG1MX7Zuyi1-2" target="_S4eydJjEhaC2JPIOoyc-23">
          <mxGeometry width="50" height="50" relative="1" as="geometry">
            <mxPoint x="400" y="920" as="sourcePoint" />
            <mxPoint x="450" y="870" as="targetPoint" />
          </mxGeometry>
        </mxCell>
        <mxCell id="_S4eydJjEhaC2JPIOoyc-49" value="" style="endArrow=none;html=1;rounded=0;entryX=0.5;entryY=1;entryDx=0;entryDy=0;exitX=0.5;exitY=0;exitDx=0;exitDy=0;exitPerimeter=0;" edge="1" parent="1" source="_zgztB828BG1MX7Zuyi1-3" target="_S4eydJjEhaC2JPIOoyc-23">
          <mxGeometry width="50" height="50" relative="1" as="geometry">
            <mxPoint x="410" y="1000" as="sourcePoint" />
            <mxPoint x="460" y="950" as="targetPoint" />
          </mxGeometry>
        </mxCell>
        <mxCell id="_S4eydJjEhaC2JPIOoyc-50" value="" style="endArrow=none;html=1;rounded=0;entryX=0.5;entryY=1;entryDx=0;entryDy=0;exitX=0.5;exitY=0;exitDx=0;exitDy=0;exitPerimeter=0;" edge="1" parent="1" source="_zgztB828BG1MX7Zuyi1-4" target="_S4eydJjEhaC2JPIOoyc-23">
          <mxGeometry width="50" height="50" relative="1" as="geometry">
            <mxPoint x="620" y="910" as="sourcePoint" />
            <mxPoint x="670" y="860" as="targetPoint" />
          </mxGeometry>
        </mxCell>
      </root>
    </mxGraphModel>
  </diagram>
</mxfile>
